<?xml version="1.0" encoding="UTF-8"?>
<svg id="Layer_1" data-name="Layer 1" xmlns="http://www.w3.org/2000/svg" xmlns:xlink="http://www.w3.org/1999/xlink" viewBox="0 0 2059.39 797.83">
  <defs>
    <style>
      .cls-1 {
        fill: url(#linear-gradient-2);
      }

      .cls-2 {
        fill: url(#linear-gradient-14);
      }

      .cls-3 {
        fill: url(#linear-gradient-6);
      }

      .cls-4 {
        fill: url(#linear-gradient-11);
      }

      .cls-5 {
        fill: url(#linear-gradient-10);
      }

      .cls-6 {
        fill: url(#linear-gradient-5);
      }

      .cls-7 {
        fill: url(#linear-gradient-7);
      }

      .cls-8 {
        fill: url(#linear-gradient-9);
      }

      .cls-9 {
        fill: url(#linear-gradient-3);
      }

      .cls-10 {
        fill: url(#linear-gradient);
      }

      .cls-11 {
        fill: url(#linear-gradient-4);
      }

      .cls-12 {
        fill: url(#linear-gradient-8);
      }

      .cls-13 {
        fill: url(#linear-gradient-12);
      }

      .cls-14 {
        fill: url(#linear-gradient-13);
      }
    </style>
    <linearGradient id="linear-gradient" x1="231.25" y1="-138.87" x2="1670.93" y2="925.8" gradientUnits="userSpaceOnUse">
      <stop offset="0" stop-color="#036747"/>
      <stop offset="1" stop-color="#51ae5a"/>
    </linearGradient>
    <linearGradient id="linear-gradient-2" x1="293.12" y1="-222.53" x2="1732.8" y2="842.14" xlink:href="#linear-gradient"/>
    <linearGradient id="linear-gradient-3" x1="363.37" y1="-317.52" x2="1803.04" y2="747.15" xlink:href="#linear-gradient"/>
    <linearGradient id="linear-gradient-4" x1="445.29" y1="-428.29" x2="1884.97" y2="636.38" xlink:href="#linear-gradient"/>
    <linearGradient id="linear-gradient-5" x1="473.29" y1="-466.16" x2="1912.97" y2="598.52" xlink:href="#linear-gradient"/>
    <linearGradient id="linear-gradient-6" x1="111.91" y1="22.51" x2="1551.58" y2="1087.19" xlink:href="#linear-gradient"/>
    <linearGradient id="linear-gradient-7" x1="160.45" y1="-43.12" x2="1600.12" y2="1021.55" xlink:href="#linear-gradient"/>
    <linearGradient id="linear-gradient-8" x1="213.48" y1="-114.84" x2="1653.16" y2="949.83" xlink:href="#linear-gradient"/>
    <linearGradient id="linear-gradient-9" x1="282.22" y1="-207.8" x2="1721.9" y2="856.88" xlink:href="#linear-gradient"/>
    <linearGradient id="linear-gradient-10" x1="343.14" y1="-290.17" x2="1782.82" y2="774.5" xlink:href="#linear-gradient"/>
    <linearGradient id="linear-gradient-11" x1="401.44" y1="-369" x2="1841.12" y2="695.67" xlink:href="#linear-gradient"/>
    <linearGradient id="linear-gradient-12" x1="441.43" y1="-423.08" x2="1881.11" y2="641.59" xlink:href="#linear-gradient"/>
    <linearGradient id="linear-gradient-13" x1="-100.83" y1="80.03" x2="1506.97" y2="1269.03" xlink:href="#linear-gradient"/>
    <linearGradient id="linear-gradient-14" x1="-96.95" y1="74.79" x2="1510.85" y2="1263.79" xlink:href="#linear-gradient"/>
  </defs>
  <g>
    <path class="cls-10" d="M906.78,417.41h37.62l29.99,53.43h46.61l-33.26-58.88c34.08-10.63,54.53-36.8,54.53-72.79s-27.26-59.16-74.7-59.16h-77.69l-38.17,190.83h44.43l10.63-53.43Zm20.17-101.41h34.89c22.63,0,35.71,8.72,35.71,27.26,0,25.35-17.17,38.98-46.34,38.98h-37.62l13.36-66.25Z"/>
    <path class="cls-1" d="M1127.34,473.02c22.35,0,44.43-6,61.34-19.63l-17.72-28.08c-10.09,8.72-24.26,13.63-39.26,13.63-24.26,0-36.53-10.09-37.89-29.98h112.31c1.36-6.81,2.46-14.45,2.46-22.36,0-39.25-26.99-64.61-69.79-64.61-50.98,0-86.42,36.26-86.42,85.33,0,39.8,29.17,65.7,74.97,65.7Zm9.54-119.13c19.63,0,32.71,10.9,32.71,30.26h-72.79c5.73-18.26,19.63-30.26,40.07-30.26Z"/>
    <path class="cls-9" d="M1286.83,473.02c17.99,0,33.26-6,44.98-16.63l-2.73,14.45h40.35l29.17-146.67h-42.53l-3.82,19.9c-9.54-15.27-26.44-22.08-47.71-22.08-45.26,0-80.97,35.99-80.97,85.33,0,41.71,29.17,65.7,63.24,65.7Zm22.63-115.86c21.26,0,33.53,12.54,33.53,32.44,0,28.63-17.99,48.25-43.07,48.25-21.26,0-33.53-12.54-33.53-32.44,0-28.63,17.99-48.25,43.07-48.25Z"/>
    <path class="cls-11" d="M1475.5,473.02c18.26,0,33.26-6.27,44.98-16.9l-3,14.72h40.35l40.35-202.28h-42.53l-15,74.96c-9.54-14.45-26.17-21.54-47.43-21.54-45.26,0-80.97,35.99-80.97,85.33,0,41.71,29.17,65.7,63.24,65.7Zm22.63-115.86c21.26,0,33.53,12.54,33.53,32.44,0,28.63-17.99,48.25-43.07,48.25-21.26,0-33.53-12.54-33.53-32.44,0-28.63,17.99-48.25,43.07-48.25Z"/>
    <path class="cls-6" d="M1637.18,473.57c-8.18,12.81-15.27,17.99-26.44,17.99-9.27,0-17.45-3.54-23.44-9l-19.63,30.53c8.45,7.91,24.81,12.81,39.8,12.81,28.08,0,45.53-10.63,67.06-45.25l97.59-156.48h-41.98l-61.06,99.78-21.81-99.78h-42.53l33.8,146.94-1.36,2.46Z"/>
    <path class="cls-3" d="M934.12,555.6c23.24,0,40.52,6.55,54.51,23.23l34.56-28c-17.87-23.53-47.07-36.34-86.98-36.34-78.94,0-131.06,53.92-131.06,125.11,0,53.91,39.91,90.55,103.07,90.55,30.09,0,58.68-9.24,79.83-25.32l17.28-85.79h-44.08l-12.22,62.55c-11.02,5.07-22.34,7.45-34.55,7.45-39.62,0-60.47-21.15-60.47-52.43,0-45.87,31.28-81.02,80.12-81.02Z"/>
    <path class="cls-7" d="M1097.4,585.38l3.87-19.06h-44.09l-31.87,160.26h46.47l15.49-77.45c5.96-30.09,23.53-42.89,50.94-42.89,3.87,0,6.55,.3,10.73,.59l8.34-42.89c-25.91,0-45.57,5.96-59.87,21.45Z"/>
    <path class="cls-12" d="M1250.82,563.93c-56.3,0-96.81,39.91-96.81,93.24,0,43.19,31.87,71.79,80.72,71.79,56.6,0,96.81-39.91,96.81-93.23,0-43.49-31.57-71.79-80.72-71.79Zm-13.11,126.6c-23.23,0-36.64-13.71-36.64-35.45,0-31.28,19.66-52.72,47.06-52.72,23.24,0,36.34,13.7,36.34,35.44,0,31.28-19.66,52.73-46.77,52.73Z"/>
    <path class="cls-8" d="M1443.58,602.36c16.38,0,28.6,6.85,35.74,21.74l39.32-19.66c-12.22-25.91-37.83-40.51-72.09-40.51-57.19,0-97.7,39.91-97.7,93.24,0,43.19,31.87,71.79,81.62,71.79,32.77,0,60.76-14.3,76.26-38.42l-34.26-21.45c-9.53,14.89-23.23,21.45-39.32,21.45-23.83,0-37.23-14-37.23-35.74,0-30.98,20.26-52.43,47.66-52.43Z"/>
    <path class="cls-5" d="M1617.56,563.93c-55.7,0-94.43,39.62-94.43,93.24,0,43.49,31.87,71.79,81.91,71.79,24.43,0,48.56-6.55,67.02-21.45l-19.36-30.68c-11.02,9.53-26.51,14.89-42.89,14.89-26.51,0-39.91-11.02-41.4-32.77h122.73c1.49-7.45,2.68-15.79,2.68-24.43,0-42.89-29.49-70.6-76.26-70.6Zm-45.87,67.92c6.26-19.96,21.45-33.07,43.79-33.07s35.74,11.92,35.74,33.07h-79.53Z"/>
    <path class="cls-4" d="M1830.58,606.83l8.34-42.89c-25.91,0-45.57,5.96-59.87,21.45l3.87-19.06h-44.09l-31.87,160.26h46.47l15.49-77.45c5.96-30.09,23.53-42.89,50.94-42.89,3.87,0,6.55,.3,10.73,.59Z"/>
    <path class="cls-13" d="M1984.9,566.32l-66.72,109.02-23.83-109.02h-46.47l36.94,160.55-1.49,2.68c-8.94,14-16.68,19.66-28.9,19.66-10.12,0-19.06-3.87-25.62-9.83l-21.45,33.36c9.24,8.64,27.11,14,43.49,14,30.68,0,49.75-11.62,73.28-49.45l106.64-170.98h-45.87Z"/>
  </g>
  <path class="cls-14" d="M793.83,353.74v-80.12c.44-15.32-16.93-13.44-16.93-13.44h-192.73l.35-74.83c.21-46.34-17.58-89.97-50.1-122.88-14.14-14.31-30.33-25.87-47.91-34.34-22.77-11.02-47.87-16.89-73.89-17.05-18.29-.13-37.05,2.58-55.76,8.33-2.38,.74-4.78,1.52-7.2,2.35-2.68,.96-5.33,2.06-7.89,3.27-25.79,12.21-47.29,29.12-63.9,49.25-25.35,30.73-39.22,68.96-39.42,109.39l-.32,76.49H36.83c-10.15,0-8.03,12.1-8.03,12.1v75.53c-.69,18.88,11.16,18.66,11.16,18.66h40.65l29.37,201.63v-.43c0-2.02,1.71-3.65,3.78-3.65h77.99c2.08,0,3.76,1.64,3.76,3.65v17.13c0,2.04-1.68,3.67-3.76,3.67H113.76c-.28,0-.55-.02-.83-.09l5.42,37.25h49.8c2.08,0,3.76,1.66,3.76,3.67v17.13c0,2.02-1.68,3.67-3.76,3.67h-46.23l4.18,28.62c.6-.36,1.29-.58,2.05-.58h41.06c2.08,0,3.78,1.66,3.78,3.67v17.13c0,2.02-1.71,3.67-3.78,3.67h-40.07c4.06,56.17,39.61,63.36,39.61,63.36l439.08-.72c72.71,4.97,77.23-43.3,77.23-43.3l48.72-356.49h46.09c12.92,.25,13.96-11.76,13.96-11.76Zm-231.49-30.48c11.9,0,21.57-10.15,21.64-22.71l.05-10.46c3.97,4.3,6.37,9.83,6.37,15.86,0,13.75-12.46,24.88-27.8,24.88s-27.8-11.13-27.8-24.88c0-5.78,2.21-11.11,5.93-15.34l-.05,9.72v.13c0,12.59,9.69,22.8,21.66,22.8ZM281.72,183.9c.16-34.72,13.82-67.31,38.45-91.77,6.85-6.83,14.35-12.79,22.35-17.83,1.27-.81,2.56-1.61,3.9-2.35,27.01-15.79,59.26-21.35,91.97-14.78,7.13,1.43,14.26,3.43,21.36,6.03,1.36,.49,2.7,1.05,3.99,1.66,5.95,2.82,11.58,6,16.89,9.45,38.89,25.22,60.81,66.39,60.6,110.83l-.37,75.06H281.38l.35-76.29Zm-43.74,105.59l-.05,10.86v.13c0,12.57,9.69,22.78,21.64,22.78s21.57-10.15,21.64-22.69l.05-9.3c3.37,4.12,5.35,9.18,5.35,14.67,0,13.75-12.43,24.88-27.8,24.88s-27.8-11.13-27.8-24.88c0-6.29,2.61-12.07,6.97-16.46Zm-66.62,156.61c0-2.02,1.71-3.67,3.78-3.67h125.14c2.1,0,3.78,1.66,3.78,3.67v17.13c0,2.02-1.68,3.67-3.78,3.67h-125.14c-2.08,0-3.78-1.66-3.78-3.67v-17.13Zm88.81,121.58v17.13c0,2.04-1.68,3.67-3.78,3.67h-45.61c-2.1,0-3.78-1.63-3.78-3.67v-17.13c0-2.02,1.68-3.65,3.78-3.65h45.61c2.1,0,3.78,1.64,3.78,3.65Zm-118.59-40.03c-2.08,0-3.78-1.64-3.78-3.65v-17.13c0-2.04,1.71-3.67,3.78-3.67h106.85c2.08,0,3.76,1.64,3.76,3.67v17.13c0,2.02-1.68,3.65-3.76,3.65h-106.85Zm414.62,85.16l19.95,34.31,33.84,58.17h-83.92l-12.46-21.57-33.54-58.06-1.94-3.36h-67.75l-2.86,13.84-13.56,66.19-.6,2.96H183.73c-2.12,0-3.81-1.32-3.81-2.91v-18.59c0-1.61,1.68-2.98,3.81-2.98h134.65l1.2-5.8,5.14-24.91H181.33c-2.1,0-3.78-1.64-3.78-3.65v-17.13c0-2.02,1.68-3.65,3.78-3.65h148.42l1.89-9.12,5.77-28.07h-58.02c-2.08,0-3.78-1.63-3.78-3.67v-17.13c0-2.02,1.71-3.65,3.78-3.65h63.04l1.38-6.67,5.79-28.07,.32-1.63h-85.97c-2.1,0-3.78-1.64-3.78-3.67v-17.11c0-2.02,1.68-3.65,3.78-3.65h91l.85-4.21,5.79-27.98,.85-4.14h-44.15c-2.08,0-3.78-1.64-3.78-3.65v-17.13c0-2.02,1.71-3.65,3.78-3.65h49.18l.37-1.7,5.86-28.42,1.18-5.82H235.06c-2.08,0-3.76-1.66-3.76-3.67v-17.13c0-2.04,1.68-3.67,3.76-3.67h284.84c85.44,0,134.51,38.17,134.51,103.5s-36.86,108.68-98.2,127.29Z"/>
  <path class="cls-2" d="M509.59,444.97h-62.86l-24.08,115.82h67.77c52.5,0,83.46-23.81,83.46-68.14,0-32.43-23.58-47.69-64.29-47.69Z"/>
</svg>